<?xml version="1.0" encoding="utf-8"?>
<!-- Generator: Adobe Illustrator 25.2.0, SVG Export Plug-In . SVG Version: 6.00 Build 0)  -->
<svg version="1.1" id="Layer_1" xmlns="http://www.w3.org/2000/svg" xmlns:xlink="http://www.w3.org/1999/xlink" x="0px" y="0px"
	 viewBox="0 0 411.74 216.98" style="enable-background:new 0 0 411.74 216.98;" xml:space="preserve">
<style type="text/css">
	.st0{fill:#FFFFFF;}
	.st1{fill:none;stroke:#7CAF41;stroke-width:4.402;}
	.st2{fill:#7CAF41;}
	.st3{fill:none;}
	.st4{fill:none;stroke:#FFFFFF;stroke-width:1.672;}
</style>
<path class="st0" d="M408.63,177.94v-32.58v-35.21V39.53C345.99,30.65,276.45,3.64,204.69,3.64C129.03,3.64,59.95,28.95,3.1,38.63
	v71.52v35.21v33.49c56.84,9.67,125.92,34.99,201.59,34.99C276.45,213.84,345.99,186.82,408.63,177.94"/>
<path class="st1" d="M408.63,177.94v-32.58v-35.21V39.53C345.99,30.65,276.45,3.64,204.69,3.64C129.03,3.64,59.95,28.95,3.1,38.63
	v71.52v35.21v33.49c56.84,9.67,125.92,34.99,201.59,34.99C276.45,213.84,345.99,186.82,408.63,177.94z"/>
<path class="st2" d="M398.49,169.18V145.8v-36.09V48.3c-59.51-8.43-125.57-34.1-193.74-34.1c-71.88,0-137.51,24.05-191.51,33.24
	v62.27v36.09v24.23c54,9.19,119.63,33.24,191.51,33.24C272.92,203.27,338.98,177.61,398.49,169.18"/>
<rect x="0.9" y="1.44" class="st3" width="409.93" height="214.6"/>
<polygon class="st0" points="61.13,150.07 61.13,98.14 51.55,141.09 41.89,98.14 41.89,150.07 36,150.07 36,72.23 41.27,72.23 
	51.55,124.33 61.91,72.23 66.92,72.23 66.92,150.07 "/>
<polygon class="st4" points="61.13,150.07 61.13,98.14 51.55,141.09 41.89,98.14 41.89,150.07 36,150.07 36,72.23 41.27,72.23 
	51.55,124.33 61.91,72.23 66.92,72.23 66.92,150.07 "/>
<path class="st0" d="M93.34,92.11c0-0.53-0.04-1.08-0.13-1.66c-0.09-0.59-0.3-1.1-0.61-1.54c-0.33-0.44-0.84-0.82-1.54-1.14
	c-0.7-0.32-1.66-0.48-2.89-0.48c-1.11,0-2.02,0.15-2.72,0.44c-0.7,0.29-1.24,0.66-1.62,1.1c-0.38,0.44-0.63,0.95-0.75,1.54
	c-0.11,0.59-0.17,1.17-0.17,1.75v44.08c0,1,0.48,1.86,1.44,2.59c0.97,0.74,2.24,1.1,3.82,1.1c1.82-0.06,3.13-0.42,3.95-1.1
	c0.81-0.67,1.23-1.5,1.23-2.5V92.11z M98.66,137.21c-0.39,0.9-1,1.71-1.84,2.42c-0.86,0.7-1.97,1.26-3.34,1.66
	c-1.37,0.41-3.09,0.62-5.13,0.62c-4.16,0-7.09-0.71-8.78-2.11c-1.7-1.4-2.55-3.13-2.55-5.18V94.48c0-0.93,0.11-1.95,0.31-3.03
	c0.2-1.08,0.67-2.07,1.4-2.94c0.73-0.88,1.86-1.61,3.38-2.2c1.52-0.59,3.6-0.88,6.24-0.88c2.57,0,4.59,0.31,6.06,0.93
	c1.46,0.61,2.54,1.38,3.24,2.28c0.7,0.91,1.14,1.87,1.32,2.9c0.18,1.03,0.27,1.98,0.27,2.85v39.95
	C99.23,135.35,99.04,136.29,98.66,137.21"/>
<path class="st4" d="M93.34,92.11c0-0.53-0.04-1.08-0.13-1.66c-0.09-0.59-0.3-1.1-0.61-1.54c-0.33-0.44-0.84-0.82-1.54-1.14
	c-0.7-0.32-1.66-0.48-2.89-0.48c-1.11,0-2.02,0.15-2.72,0.44c-0.7,0.29-1.24,0.66-1.62,1.1c-0.38,0.44-0.63,0.95-0.75,1.54
	c-0.11,0.59-0.17,1.17-0.17,1.75v44.08c0,1,0.48,1.86,1.44,2.59c0.97,0.74,2.24,1.1,3.82,1.1c1.82-0.06,3.13-0.42,3.95-1.1
	c0.81-0.67,1.23-1.5,1.23-2.5V92.11z M98.66,137.21c-0.39,0.9-1,1.71-1.84,2.42c-0.86,0.7-1.97,1.26-3.34,1.66
	c-1.37,0.41-3.09,0.62-5.13,0.62c-4.16,0-7.09-0.71-8.78-2.11c-1.7-1.4-2.55-3.13-2.55-5.18V94.48c0-0.93,0.11-1.95,0.31-3.03
	c0.2-1.08,0.67-2.07,1.4-2.94c0.73-0.88,1.86-1.61,3.38-2.2c1.52-0.59,3.6-0.88,6.24-0.88c2.57,0,4.59,0.31,6.06,0.93
	c1.46,0.61,2.54,1.38,3.24,2.28c0.7,0.91,1.14,1.87,1.32,2.9c0.18,1.03,0.27,1.98,0.27,2.85v39.95
	C99.23,135.35,99.04,136.29,98.66,137.21"/>
<path class="st0" d="M126.27,92.64c0-1.12-0.11-2.02-0.35-2.72c-0.24-0.7-0.82-1.2-1.76-1.49c-0.59-0.23-1.18-0.41-1.79-0.53
	c-0.61-0.12-1.52-0.18-2.69-0.18h-3.77v51.9h3.77h0.71c0.41,0,0.89-0.03,1.45-0.09c0.56-0.07,1.12-0.17,1.71-0.31
	c0.59-0.14,1.12-0.37,1.58-0.66c0.59-0.47,0.93-1.03,1.01-1.67c0.09-0.64,0.13-1.32,0.13-2.02V92.64z M132.29,134.83
	c-0.03,0.56-0.13,1.13-0.31,1.71c-0.18,0.59-0.44,1.14-0.79,1.67c-0.35,0.52-0.84,0.99-1.49,1.41c-0.89,0.59-1.87,1-2.94,1.27
	c-1.09,0.26-2.11,0.45-3.07,0.57c-0.97,0.12-1.8,0.17-2.5,0.17h-1.06h-10.01V85.7h10.36h1.32c0.7,0,1.49,0.05,2.36,0.13
	c0.88,0.09,1.79,0.25,2.72,0.48c0.94,0.24,1.84,0.62,2.72,1.14c1.47,0.94,2.28,2.02,2.46,3.25c0.18,1.23,0.26,2.58,0.26,4.04v38.54
	C132.33,133.76,132.31,134.28,132.29,134.83"/>
<path class="st4" d="M126.27,92.64c0-1.12-0.11-2.02-0.35-2.72c-0.24-0.7-0.82-1.2-1.76-1.49c-0.59-0.23-1.18-0.41-1.79-0.53
	c-0.61-0.12-1.52-0.18-2.69-0.18h-3.77v51.9h3.77h0.71c0.41,0,0.89-0.03,1.45-0.09c0.56-0.07,1.12-0.17,1.71-0.31
	c0.59-0.14,1.12-0.37,1.58-0.66c0.59-0.47,0.93-1.03,1.01-1.67c0.09-0.64,0.13-1.32,0.13-2.02V92.64z M132.29,134.83
	c-0.03,0.56-0.13,1.13-0.31,1.71c-0.18,0.59-0.44,1.14-0.79,1.67c-0.35,0.52-0.84,0.99-1.49,1.41c-0.89,0.59-1.87,1-2.94,1.27
	c-1.09,0.26-2.11,0.45-3.07,0.57c-0.97,0.12-1.8,0.17-2.5,0.17h-1.06h-10.01V85.7h10.36h1.32c0.7,0,1.49,0.05,2.36,0.13
	c0.88,0.09,1.79,0.25,2.72,0.48c0.94,0.24,1.84,0.62,2.72,1.14c1.47,0.94,2.28,2.02,2.46,3.25c0.18,1.23,0.26,2.58,0.26,4.04v38.54
	C132.33,133.76,132.31,134.28,132.29,134.83"/>
<rect x="0.9" y="1.44" class="st3" width="409.93" height="214.6"/>
<polygon class="st0" points="142.96,141.55 142.96,85.7 160.43,85.7 160.43,88.6 148.84,88.6 148.84,109.76 159.29,109.76 
	159.29,112.83 148.84,112.83 148.84,138.48 160.61,138.48 160.61,141.55 "/>
<polygon class="st4" points="142.96,141.55 142.96,85.7 160.43,85.7 160.43,88.6 148.84,88.6 148.84,109.76 159.29,109.76 
	159.29,112.83 148.84,112.83 148.84,138.48 160.61,138.48 160.61,141.55 "/>
<path class="st0" d="M186.25,92.64c0-1.12-0.12-2.04-0.35-2.77c-0.24-0.73-0.85-1.24-1.84-1.54c-1.29-0.47-2.79-0.7-4.48-0.7h-3.6
	v22.83h2.81c1.23,0,2.42-0.18,3.56-0.53c1.14-0.35,2-0.79,2.59-1.32c0.41-0.46,0.74-1.2,0.97-2.2c0.23-0.99,0.35-1.99,0.35-2.98
	V92.64z M186.25,141.64v-22.21c0-1.12-0.14-2.19-0.39-3.21c-0.27-1.02-0.87-1.77-1.8-2.23c-0.94-0.53-1.79-0.88-2.55-1.05
	c-0.76-0.17-1.72-0.26-2.89-0.26h-2.64v28.98h-5.88V85.62h10h0.97c0.7,0,1.52,0.04,2.46,0.13c0.94,0.09,1.93,0.26,2.99,0.53
	c1.05,0.27,2.02,0.66,2.89,1.19c1.52,0.94,2.39,2.01,2.59,3.21c0.2,1.2,0.3,2.54,0.3,3.99v10.27c0,0.71-0.1,1.32-0.3,1.84
	c-0.21,0.53-0.63,1.12-1.27,1.76c-0.3,0.35-0.69,0.69-1.19,1.01c-0.5,0.32-1.01,0.61-1.54,0.88c-0.52,0.26-0.99,0.49-1.4,0.66
	c-0.41,0.18-0.64,0.26-0.7,0.26c0.06,0,0.26,0.08,0.61,0.22c0.34,0.15,0.73,0.33,1.14,0.57c0.41,0.23,0.84,0.48,1.28,0.75
	c0.44,0.26,0.83,0.54,1.19,0.83c1.23,1.05,1.9,2.12,2.02,3.2c0.11,1.08,0.17,2.29,0.17,3.65v21.07H186.25z"/>
<path class="st4" d="M186.25,92.64c0-1.12-0.12-2.04-0.35-2.77c-0.24-0.73-0.85-1.24-1.84-1.54c-1.29-0.47-2.79-0.7-4.48-0.7h-3.6
	v22.83h2.81c1.23,0,2.42-0.18,3.56-0.53c1.14-0.35,2-0.79,2.59-1.32c0.41-0.46,0.74-1.2,0.97-2.2c0.23-0.99,0.35-1.99,0.35-2.98
	V92.64z M186.25,141.64v-22.21c0-1.12-0.14-2.19-0.39-3.21c-0.27-1.02-0.87-1.77-1.8-2.23c-0.94-0.53-1.79-0.88-2.55-1.05
	c-0.76-0.17-1.72-0.26-2.89-0.26h-2.64v28.98h-5.88V85.62h10h0.97c0.7,0,1.52,0.04,2.46,0.13c0.94,0.09,1.93,0.26,2.99,0.53
	c1.05,0.27,2.02,0.66,2.89,1.19c1.52,0.94,2.39,2.01,2.59,3.21c0.2,1.2,0.3,2.54,0.3,3.99v10.27c0,0.71-0.1,1.32-0.3,1.84
	c-0.21,0.53-0.63,1.12-1.27,1.76c-0.3,0.35-0.69,0.69-1.19,1.01c-0.5,0.32-1.01,0.61-1.54,0.88c-0.52,0.26-0.99,0.49-1.4,0.66
	c-0.41,0.18-0.64,0.26-0.7,0.26c0.06,0,0.26,0.08,0.61,0.22c0.34,0.15,0.73,0.33,1.14,0.57c0.41,0.23,0.84,0.48,1.28,0.75
	c0.44,0.26,0.83,0.54,1.19,0.83c1.23,1.05,1.9,2.12,2.02,3.2c0.11,1.08,0.17,2.29,0.17,3.65v21.07H186.25z"/>
<rect x="0.9" y="1.44" class="st3" width="409.93" height="214.6"/>
<polygon class="st0" points="218.65,141.64 218.65,120.91 208.11,98.26 208.11,141.64 202.23,141.64 202.23,85.62 207.49,85.62 
	218.65,112.13 218.65,85.62 224.44,85.62 224.44,141.64 "/>
<polygon class="st4" points="218.65,141.64 218.65,120.91 208.11,98.26 208.11,141.64 202.23,141.64 202.23,85.62 207.49,85.62 
	218.65,112.13 218.65,85.62 224.44,85.62 224.44,141.64 "/>
<path class="st0" d="M263.67,147.47c-1.03-0.69-1.1-1.07-1.1-3.72c0-4.9,0.29-8.82,0.36-10.39c0.07-1.07,0.22-1.56,0.59-1.56
	c0.45,0,0.52,0.29,0.52,1.07c0,0.88,0,2.25,0.21,3.62c1.1,7.25,5.95,10,10.88,10c7.05,0,10.5-6.76,10.5-13.03
	c0-6.76-2.13-10.68-8.44-17.63l-3.31-3.62c-7.78-8.52-9.55-14.59-9.55-21.25c0-10.48,5.88-17.63,15.21-17.63
	c2.87,0,5,0.39,6.83,0.98c1.4,0.39,1.99,0.49,2.57,0.49c0.59,0,0.74,0.2,0.74,0.69c0,0.49-0.29,3.72-0.29,10.39
	c0,1.56-0.15,2.25-0.52,2.25c-0.44,0-0.51-0.49-0.58-1.27c-0.08-1.18-0.52-3.82-0.96-4.9c-0.44-1.08-2.43-5.19-9.19-5.19
	c-5.06,0-9.03,4.21-9.03,11.36c0,5.59,1.91,9.11,8.96,16.45l2.06,2.16c8.67,9.11,10.72,15.18,10.72,23.02
	c0,4.02-1.16,11.46-6.23,16.26c-3.16,2.95-7.13,4.12-11.1,4.12C270.06,150.11,266.68,149.43,263.67,147.47"/>
<path class="st4" d="M263.67,147.47c-1.03-0.69-1.1-1.07-1.1-3.72c0-4.9,0.29-8.82,0.36-10.39c0.07-1.07,0.22-1.56,0.59-1.56
	c0.45,0,0.52,0.29,0.52,1.07c0,0.88,0,2.25,0.21,3.62c1.1,7.25,5.95,10,10.88,10c7.05,0,10.5-6.76,10.5-13.03
	c0-6.76-2.13-10.68-8.44-17.63l-3.31-3.62c-7.78-8.52-9.55-14.59-9.55-21.25c0-10.48,5.88-17.63,15.21-17.63
	c2.87,0,5,0.39,6.83,0.98c1.4,0.39,1.99,0.49,2.57,0.49c0.59,0,0.74,0.2,0.74,0.69c0,0.49-0.29,3.72-0.29,10.39
	c0,1.56-0.15,2.25-0.52,2.25c-0.44,0-0.51-0.49-0.58-1.27c-0.08-1.18-0.52-3.82-0.96-4.9c-0.44-1.08-2.43-5.19-9.19-5.19
	c-5.06,0-9.03,4.21-9.03,11.36c0,5.59,1.91,9.11,8.96,16.45l2.06,2.16c8.67,9.11,10.72,15.18,10.72,23.02
	c0,4.02-1.16,11.46-6.23,16.26c-3.16,2.95-7.13,4.12-11.1,4.12C270.06,150.11,266.68,149.43,263.67,147.47"/>
<path class="st0" d="M320.6,120.53c0,7.17,0.05,13.03,0.21,16.09c0.12,2.19,0.21,3.59,1.36,3.94c0.5,0.18,1.36,0.35,1.65,0.35
	c0.25,0,0.34,0.35,0.34,0.61c0,0.34-0.21,0.61-0.63,0.61c-2.04,0-4.41-0.27-4.62-0.27c-0.17,0-2.59,0.27-3.69,0.27
	c-0.42,0-0.59-0.17-0.59-0.61c0-0.26,0.08-0.61,0.29-0.61c0.34,0,0.76-0.17,1.1-0.35c0.76-0.35,0.89-1.83,1.02-4.02
	c0.17-3.06,0.17-8.65,0.17-15.82v-7.43c0-0.35-0.08-0.44-0.21-0.44h-15.53c-0.13,0-0.21,0.09-0.21,0.44v7.43
	c0,7.17,0,12.85,0.17,15.91c0.13,2.19,0.25,3.59,1.36,3.94c0.55,0.18,1.35,0.35,1.69,0.35c0.21,0,0.3,0.35,0.3,0.61
	c0,0.34-0.17,0.61-0.59,0.61c-2.08,0-4.44-0.27-4.62-0.27c-0.21,0-2.58,0.27-3.72,0.27c-0.38,0-0.59-0.17-0.59-0.61
	c0-0.26,0.09-0.61,0.3-0.61c0.34,0,0.8-0.17,1.14-0.35c0.72-0.35,0.8-1.75,0.97-3.94c0.21-3.06,0.21-8.92,0.21-16.09v-13.11
	c0-11.54,0-13.64-0.09-16c-0.08-2.54-0.3-3.76-1.53-4.11c-0.29-0.09-0.93-0.17-1.27-0.17c-0.12,0-0.3-0.35-0.3-0.61
	c0-0.44,0.17-0.61,0.59-0.61c1.69,0,4.06,0.18,4.27,0.18c0.17,0,2.54-0.18,3.69-0.18c0.42,0,0.59,0.18,0.59,0.61
	c0,0.26-0.17,0.61-0.3,0.61c-0.25,0-0.51,0-0.93,0.17c-1.02,0.44-1.23,1.49-1.31,4.11c-0.04,2.36-0.04,4.63-0.04,16.17v1.57
	c0,0.44,0.08,0.44,0.21,0.44H317c0.13,0,0.21,0,0.21-0.44v-1.57c0-11.54-0.04-13.81-0.08-16.17c-0.09-2.54-0.25-3.76-1.49-4.11
	c-0.29-0.09-0.93-0.17-1.27-0.17c-0.16,0-0.29-0.35-0.29-0.61c0-0.44,0.17-0.61,0.59-0.61c1.65,0,4.07,0.18,4.24,0.18
	c0.21,0,2.58-0.18,3.68-0.18c0.43,0,0.64,0.18,0.64,0.61c0,0.26-0.17,0.61-0.34,0.61c-0.26,0-0.46,0-0.92,0.17
	c-0.98,0.44-1.19,1.49-1.27,4.11c-0.09,2.36-0.09,4.46-0.09,16V120.53z"/>
<path class="st4" d="M320.6,120.53c0,7.17,0.05,13.03,0.21,16.09c0.12,2.19,0.21,3.59,1.36,3.94c0.5,0.18,1.36,0.35,1.65,0.35
	c0.25,0,0.34,0.35,0.34,0.61c0,0.34-0.21,0.61-0.63,0.61c-2.04,0-4.41-0.27-4.62-0.27c-0.17,0-2.59,0.27-3.69,0.27
	c-0.42,0-0.59-0.17-0.59-0.61c0-0.26,0.08-0.61,0.29-0.61c0.34,0,0.76-0.17,1.1-0.35c0.76-0.35,0.89-1.83,1.02-4.02
	c0.17-3.06,0.17-8.65,0.17-15.82v-7.43c0-0.35-0.08-0.44-0.21-0.44h-15.53c-0.13,0-0.21,0.09-0.21,0.44v7.43
	c0,7.17,0,12.85,0.17,15.91c0.13,2.19,0.25,3.59,1.36,3.94c0.55,0.18,1.35,0.35,1.69,0.35c0.21,0,0.3,0.35,0.3,0.61
	c0,0.34-0.17,0.61-0.59,0.61c-2.08,0-4.44-0.27-4.62-0.27c-0.21,0-2.58,0.27-3.72,0.27c-0.38,0-0.59-0.17-0.59-0.61
	c0-0.26,0.09-0.61,0.3-0.61c0.34,0,0.8-0.17,1.14-0.35c0.72-0.35,0.8-1.75,0.97-3.94c0.21-3.06,0.21-8.92,0.21-16.09v-13.11
	c0-11.54,0-13.64-0.09-16c-0.08-2.54-0.3-3.76-1.53-4.11c-0.29-0.09-0.93-0.17-1.27-0.17c-0.12,0-0.3-0.35-0.3-0.61
	c0-0.44,0.17-0.61,0.59-0.61c1.69,0,4.06,0.18,4.27,0.18c0.17,0,2.54-0.18,3.69-0.18c0.42,0,0.59,0.18,0.59,0.61
	c0,0.26-0.17,0.61-0.3,0.61c-0.25,0-0.51,0-0.93,0.17c-1.02,0.44-1.23,1.49-1.31,4.11c-0.04,2.36-0.04,4.63-0.04,16.17v1.57
	c0,0.44,0.08,0.44,0.21,0.44H317c0.13,0,0.21,0,0.21-0.44v-1.57c0-11.54-0.04-13.81-0.08-16.17c-0.09-2.54-0.25-3.76-1.49-4.11
	c-0.29-0.09-0.93-0.17-1.27-0.17c-0.16,0-0.29-0.35-0.29-0.61c0-0.44,0.17-0.61,0.59-0.61c1.65,0,4.07,0.18,4.24,0.18
	c0.21,0,2.58-0.18,3.68-0.18c0.43,0,0.64,0.18,0.64,0.61c0,0.26-0.17,0.61-0.34,0.61c-0.26,0-0.46,0-0.92,0.17
	c-0.98,0.44-1.19,1.49-1.27,4.11c-0.09,2.36-0.09,4.46-0.09,16V120.53z"/>
<path class="st0" d="M342.33,140.04c3.34,0,10.08-3.67,10.08-25.18c0-17.83-5.26-27.19-11.14-27.19c-6.22,0-10.71,8.04-10.71,24.21
	C330.56,129.19,335.6,140.04,342.33,140.04 M341.48,84.86c8.38,0,14.74,10.58,14.74,27.89c0,16.61-5.98,30.34-14.96,30.34
	c-10.21,0-14.56-15.82-14.56-29.2C326.71,101.91,331.2,84.86,341.48,84.86"/>
<path class="st4" d="M342.33,140.04c3.34,0,10.08-3.67,10.08-25.18c0-17.83-5.26-27.19-11.14-27.19c-6.22,0-10.71,8.04-10.71,24.21
	C330.56,129.19,335.6,140.04,342.33,140.04 M341.48,84.86c8.38,0,14.74,10.58,14.74,27.89c0,16.61-5.98,30.34-14.96,30.34
	c-10.21,0-14.56-15.82-14.56-29.2C326.71,101.91,331.2,84.86,341.48,84.86"/>
<path class="st0" d="M361.84,107.42c0-11.54,0-13.64-0.08-16c-0.09-2.53-0.3-3.76-1.52-4.11c-0.29-0.09-0.93-0.17-1.27-0.17
	c-0.13,0-0.29-0.35-0.29-0.61c0-0.44,0.17-0.61,0.59-0.61c1.7,0,4.11,0.18,4.32,0.18c0.25,0,8.04,0.09,8.89,0
	c0.72-0.09,1.39-0.35,1.69-0.44c0.17-0.08,0.34-0.35,0.51-0.35c0.13,0,0.17,0.35,0.17,0.7c0,0.53-0.21,1.4-0.29,3.5
	c-0.04,0.7-0.13,4.02-0.21,4.89c-0.04,0.35-0.17,0.79-0.34,0.79c-0.21,0-0.3-0.35-0.3-0.96c0-0.52-0.04-1.75-0.21-2.62
	c-0.25-1.22-0.64-1.75-2.67-2.27c-0.64-0.18-4.96-0.26-5.38-0.26c-0.17,0-0.21,0.26-0.21,0.79v20.2c0,0.53,0,0.79,0.21,0.79
	c0.46,0,5.38,0,6.23-0.17c0.88-0.17,1.43-0.26,1.82-1.05c0.25-0.52,0.42-0.96,0.55-0.96c0.13,0,0.21,0.17,0.21,0.61
	c0,0.44-0.21,1.66-0.29,4.11c-0.09,1.48-0.17,4.29-0.17,4.81c0,0.61-0.09,1.39-0.34,1.39c-0.17,0-0.25-0.26-0.25-0.7
	c0-0.69,0-1.48-0.17-2.45c-0.13-1.04-0.47-1.92-1.91-2.27c-1.02-0.26-5-0.35-5.63-0.35c-0.21,0-0.25,0.26-0.25,0.53v6.2
	c0,2.54-0.05,11.2,0,12.68c0.08,4.97,0.76,5.94,4.44,5.94c0.98,0,2.76,0,3.73-0.78c0.97-0.89,1.48-2.19,1.69-5.16
	c0.09-0.88,0.17-1.14,0.38-1.14c0.21,0,0.25,0.62,0.25,1.14c0,0.52-0.29,5.59-0.5,7.16c-0.26,1.93-0.64,1.93-2.08,1.93
	c-2.79,0-4.96-0.18-6.48-0.26c-1.56-0.18-2.54-0.18-3.09-0.18c-0.08,0-0.8,0-1.61,0.09c-0.72,0.08-1.56,0.17-2.16,0.17
	c-0.38,0-0.59-0.17-0.59-0.61c0-0.27,0.09-0.62,0.3-0.62c0.34,0,0.8-0.26,1.15-0.35c0.71-0.26,0.8-1.75,0.97-3.94
	c0.21-3.06,0.21-8.92,0.21-16.08V107.42z"/>
<path class="st4" d="M361.84,107.42c0-11.54,0-13.64-0.08-16c-0.09-2.53-0.3-3.76-1.52-4.11c-0.29-0.09-0.93-0.17-1.27-0.17
	c-0.13,0-0.29-0.35-0.29-0.61c0-0.44,0.17-0.61,0.59-0.61c1.7,0,4.11,0.18,4.32,0.18c0.25,0,8.04,0.09,8.89,0
	c0.72-0.09,1.39-0.35,1.69-0.44c0.17-0.08,0.34-0.35,0.51-0.35c0.13,0,0.17,0.35,0.17,0.7c0,0.53-0.21,1.4-0.29,3.5
	c-0.04,0.7-0.13,4.02-0.21,4.89c-0.04,0.35-0.17,0.79-0.34,0.79c-0.21,0-0.3-0.35-0.3-0.96c0-0.52-0.04-1.75-0.21-2.62
	c-0.25-1.22-0.64-1.75-2.67-2.27c-0.64-0.18-4.96-0.26-5.38-0.26c-0.17,0-0.21,0.26-0.21,0.79v20.2c0,0.53,0,0.79,0.21,0.79
	c0.46,0,5.38,0,6.23-0.17c0.88-0.17,1.43-0.26,1.82-1.05c0.25-0.52,0.42-0.96,0.55-0.96c0.13,0,0.21,0.17,0.21,0.61
	c0,0.44-0.21,1.66-0.29,4.11c-0.09,1.48-0.17,4.29-0.17,4.81c0,0.61-0.09,1.39-0.34,1.39c-0.17,0-0.25-0.26-0.25-0.7
	c0-0.69,0-1.48-0.17-2.45c-0.13-1.04-0.47-1.92-1.91-2.27c-1.02-0.26-5-0.35-5.63-0.35c-0.21,0-0.25,0.26-0.25,0.53v6.2
	c0,2.54-0.05,11.2,0,12.68c0.08,4.97,0.76,5.94,4.44,5.94c0.98,0,2.76,0,3.73-0.78c0.97-0.89,1.48-2.19,1.69-5.16
	c0.09-0.88,0.17-1.14,0.38-1.14c0.21,0,0.25,0.62,0.25,1.14c0,0.52-0.29,5.59-0.5,7.16c-0.26,1.93-0.64,1.93-2.08,1.93
	c-2.79,0-4.96-0.18-6.48-0.26c-1.56-0.18-2.54-0.18-3.09-0.18c-0.08,0-0.8,0-1.61,0.09c-0.72,0.08-1.56,0.17-2.16,0.17
	c-0.38,0-0.59-0.17-0.59-0.61c0-0.27,0.09-0.62,0.3-0.62c0.34,0,0.8-0.26,1.15-0.35c0.71-0.26,0.8-1.75,0.97-3.94
	c0.21-3.06,0.21-8.92,0.21-16.08V107.42z"/>
<rect x="0.9" y="1.44" class="st3" width="409.93" height="214.6"/>
<rect x="241.8" y="47.88" class="st0" width="6.42" height="121.71"/>
<rect x="241.8" y="47.88" class="st4" width="6.42" height="121.71"/>
</svg>
